<?xml version="1.0" encoding="UTF-8" standalone="no"?>
<svg
   xmlns:dc="http://purl.org/dc/elements/1.1/"
   xmlns:cc="http://creativecommons.org/ns#"
   xmlns:rdf="http://www.w3.org/1999/02/22-rdf-syntax-ns#"
   xmlns:svg="http://www.w3.org/2000/svg"
   xmlns="http://www.w3.org/2000/svg"
   viewBox="0 0 1090.6667 824"
   height="824"
   width="1090.6667"
   xml:space="preserve"
   id="svg2"
   version="1.1"><metadata
     id="metadata8"><rdf:RDF><cc:Work
         rdf:about=""><dc:format>image/svg+xml</dc:format><dc:type
           rdf:resource="http://purl.org/dc/dcmitype/StillImage" /></cc:Work></rdf:RDF></metadata><defs
     id="defs6"><clipPath
       id="clipPath36"
       clipPathUnits="userSpaceOnUse"><path
         id="path34"
         d="M 0,618 H 818 V 0 H 0 Z" /></clipPath></defs><g
     transform="matrix(1.3333333,0,0,-1.3333333,0,824)"
     id="g10"><g
       transform="translate(634.7187,308.999)"
       id="g12"><path
         id="path14"
         style="fill:none;stroke:#222222;stroke-width:5.04699993;stroke-linecap:butt;stroke-linejoin:miter;stroke-miterlimit:10;stroke-dasharray:none;stroke-opacity:1"
         d="M 0,0 -148.219,0.001" /></g><g
       transform="translate(670.9258,497.8213)"
       id="g16"><path
         id="path18"
         style="fill:none;stroke:#222222;stroke-width:5.04699993;stroke-linecap:butt;stroke-linejoin:miter;stroke-miterlimit:10;stroke-dasharray:none;stroke-opacity:1"
         d="M 0,0 -188.071,-115.192" /></g><g
       transform="translate(670.9258,120.1787)"
       id="g20"><path
         id="path22"
         style="fill:none;stroke:#222222;stroke-width:5.04699993;stroke-linecap:butt;stroke-linejoin:miter;stroke-miterlimit:10;stroke-dasharray:none;stroke-opacity:1"
         d="M 0,0 -199.092,121.83" /></g><path
       id="path24"
       style="fill:#ffffff;fill-opacity:1;fill-rule:evenodd;stroke:none"
       d="m 587.354,298.421 h -38.026 v 25.254 h 38.026 z" /><g
       transform="translate(556.168,308.1118)"
       id="g26"><path
         id="path28"
         style="fill:#222222;fill-opacity:1;fill-rule:nonzero;stroke:none"
         d="m 0,0 h 3.781 l -1.9,5.662 z M 4.623,-2.524 H -0.841 L -1.88,-5.641 H -5.194 L 0.437,9.484 H 3.324 L 8.986,-5.641 H 5.672 Z" /></g><g
       id="g30"><g
         clip-path="url(#clipPath36)"
         id="g32"><g
           transform="translate(568.832,310.3242)"
           id="g38"><path
             id="path40"
             style="fill:#222222;fill-opacity:1;fill-rule:nonzero;stroke:none"
             d="M 0,0 H 2.784 C 3.608,0 4.237,0.194 4.67,0.582 5.103,0.97 5.319,1.523 5.319,2.244 5.319,2.985 5.101,3.584 4.665,4.041 4.229,4.498 3.626,4.733 2.857,4.748 H 0 Z m 0,-2.524 v -5.33 H -3.116 V 7.272 h 5.9 C 3.92,7.272 4.919,7.064 5.781,6.648 6.644,6.233 7.307,5.643 7.771,4.877 8.234,4.112 8.467,3.241 8.467,2.265 8.467,0.783 7.959,-0.386 6.944,-1.241 5.93,-2.097 4.526,-2.524 2.732,-2.524 Z" /></g><path
           id="path42"
           style="fill:#222222;fill-opacity:1;fill-rule:nonzero;stroke:none"
           d="m 581.901,302.471 h -3.116 v 15.125 h 3.116 z" /><g
           transform="translate(577.0693,161.8291)"
           id="g44"><path
             id="path46"
             style="fill:#ffffff;fill-opacity:1;fill-rule:evenodd;stroke:none"
             d="M 0,0 -33.553,21.579 -19.893,42.82 13.661,21.241 Z" /></g><g
           transform="translate(556.1689,180.8091)"
           id="g48"><path
             id="path50"
             style="fill:#222222;fill-opacity:1;fill-rule:nonzero;stroke:none"
             d="m 0,0 h 3.781 l -1.9,5.662 z M 4.623,-2.524 H -0.841 L -1.88,-5.641 H -5.194 L 0.437,9.484 H 3.324 L 8.986,-5.641 H 5.672 Z" /></g><g
           transform="translate(568.833,183.0215)"
           id="g52"><path
             id="path54"
             style="fill:#222222;fill-opacity:1;fill-rule:nonzero;stroke:none"
             d="M 0,0 H 2.784 C 3.608,0 4.237,0.194 4.67,0.582 5.103,0.97 5.319,1.523 5.319,2.244 5.319,2.985 5.101,3.584 4.665,4.041 4.229,4.498 3.626,4.733 2.857,4.748 H 0 Z m 0,-2.524 v -5.33 H -3.116 V 7.272 h 5.9 C 3.92,7.272 4.919,7.064 5.781,6.648 6.644,6.233 7.307,5.643 7.771,4.877 8.234,4.112 8.467,3.241 8.467,2.265 8.467,0.783 7.959,-0.386 6.944,-1.241 5.93,-2.097 4.526,-2.524 2.732,-2.524 Z" /></g><path
           id="path56"
           style="fill:#222222;fill-opacity:1;fill-rule:nonzero;stroke:none"
           d="m 581.902,175.168 h -3.116 v 15.125 h 3.116 z" /><g
           transform="translate(590.1338,435.7339)"
           id="g58"><path
             id="path60"
             style="fill:#ffffff;fill-opacity:1;fill-rule:evenodd;stroke:none"
             d="m 0,0 -32.781,-23.73 -14.81,20.456 32.782,23.731 z" /></g><g
           transform="translate(556.1689,433.0117)"
           id="g62"><path
             id="path64"
             style="fill:#222222;fill-opacity:1;fill-rule:nonzero;stroke:none"
             d="m 0,0 h 3.781 l -1.9,5.662 z M 4.623,-2.524 H -0.841 L -1.88,-5.641 H -5.194 L 0.437,9.484 H 3.324 L 8.986,-5.641 H 5.672 Z" /></g><g
           transform="translate(568.833,435.2241)"
           id="g66"><path
             id="path68"
             style="fill:#222222;fill-opacity:1;fill-rule:nonzero;stroke:none"
             d="M 0,0 H 2.784 C 3.608,0 4.237,0.194 4.67,0.582 5.103,0.97 5.319,1.523 5.319,2.244 5.319,2.985 5.101,3.584 4.665,4.041 4.229,4.498 3.626,4.733 2.857,4.748 H 0 Z m 0,-2.524 v -5.33 H -3.116 V 7.272 h 5.9 C 3.92,7.272 4.919,7.064 5.781,6.648 6.644,6.233 7.307,5.643 7.771,4.877 8.234,4.112 8.467,3.241 8.467,2.265 8.467,0.783 7.959,-0.386 6.944,-1.241 5.93,-2.097 4.526,-2.524 2.732,-2.524 Z" /></g><path
           id="path70"
           style="fill:#222222;fill-opacity:1;fill-rule:nonzero;stroke:none"
           d="m 581.902,427.371 h -3.116 v 15.125 h 3.116 z" /><g
           transform="translate(268.1279,308.999)"
           id="g72"><path
             id="path74"
             style="fill:#003059;fill-opacity:1;fill-rule:evenodd;stroke:none"
             d="m 0,0 c 0,69.416 56.273,125.688 125.688,125.688 69.416,0 125.687,-56.272 125.687,-125.688 0,-69.415 -56.271,-125.688 -125.687,-125.688 C 56.273,-125.688 0,-69.415 0,0" /></g><g
           transform="translate(268.1279,308.999)"
           id="g76"><path
             id="path78"
             style="fill:none;stroke:#ffffff;stroke-width:3.48200011;stroke-linecap:butt;stroke-linejoin:miter;stroke-miterlimit:10;stroke-dasharray:none;stroke-opacity:1"
             d="m 0,0 c 0,69.416 56.273,125.688 125.688,125.688 69.416,0 125.687,-56.272 125.687,-125.688 0,-69.415 -56.271,-125.688 -125.687,-125.688 C 56.273,-125.688 0,-69.415 0,0 Z" /></g><g
           transform="translate(278.2783,308.999)"
           id="g80"><path
             id="path82"
             style="fill:none;stroke:#ffffff;stroke-width:2.13800001;stroke-linecap:butt;stroke-linejoin:miter;stroke-miterlimit:10;stroke-dasharray:none;stroke-opacity:1"
             d="m 0,0 c 0,63.81 51.727,115.538 115.537,115.538 63.811,0 115.537,-51.728 115.537,-115.538 0,-63.81 -51.726,-115.537 -115.537,-115.537 C 51.727,-115.537 0,-63.81 0,0 Z" /></g><g
           transform="translate(333.4106,310.3174)"
           id="g84"><path
             id="path86"
             style="fill:#ffffff;fill-opacity:1;fill-rule:nonzero;stroke:none"
             d="m 0,0 c 0,4.537 -0.897,7.899 -2.691,10.089 -1.794,2.188 -4.52,3.284 -8.176,3.284 h -3.894 v -27.727 h 2.98 c 4.062,0 7.042,1.178 8.937,3.537 C -0.948,-8.458 0,-4.853 0,0 m 13.881,0.474 c 0,-8.261 -2.275,-14.625 -6.822,-19.095 -4.548,-4.468 -10.941,-6.703 -19.179,-6.703 h -16.013 v 49.496 h 17.131 c 7.943,0 14.077,-2.031 18.399,-6.093 4.322,-4.063 6.484,-9.932 6.484,-17.605" /></g><g
           transform="translate(364.6807,305.7129)"
           id="g88"><path
             id="path90"
             style="fill:#ffffff;fill-opacity:1;fill-rule:nonzero;stroke:none"
             d="m 0,0 v -10.394 h 4.706 c 4.175,0 6.263,1.761 6.263,5.282 0,1.647 -0.558,2.911 -1.676,3.792 C 8.176,-0.44 6.557,0 4.435,0 Z m 0,9.784 h 4.029 c 1.918,0 3.402,0.395 4.452,1.185 1.049,0.79 1.574,1.964 1.574,3.521 0,2.776 -2.099,4.164 -6.297,4.164 H 0 Z M -13.373,28.777 H 3.894 c 6.725,0 11.719,-0.999 14.981,-2.996 3.261,-1.998 4.892,-5.107 4.892,-9.327 0,-2.777 -0.711,-5.146 -2.134,-7.11 C 20.211,7.38 18.338,6.116 16.014,5.552 V 5.214 c 3.069,-0.813 5.292,-2.167 6.669,-4.063 1.377,-1.896 2.065,-4.356 2.065,-7.38 0,-4.492 -1.687,-8.03 -5.061,-10.614 -3.375,-2.584 -7.973,-3.876 -13.796,-3.876 h -19.264 z" /></g><g
           transform="translate(414.7393,284.9937)"
           id="g92"><path
             id="path94"
             style="fill:#ffffff;fill-opacity:1;fill-rule:nonzero;stroke:none"
             d="m 0,0 -10.122,35.649 h -0.305 c 0.474,-6.071 0.711,-10.788 0.711,-14.151 V 0 H -21.565 V 49.496 H -3.758 L 6.568,14.354 H 6.839 L 16.962,49.496 H 34.804 V 0 h -12.29 v 21.701 c 0,1.129 0.017,2.381 0.05,3.758 0.035,1.376 0.187,4.751 0.457,10.123 H 22.717 L 12.729,0 Z" /></g><g
           transform="translate(487.7187,300.0254)"
           id="g96"><path
             id="path98"
             style="fill:#ffffff;fill-opacity:1;fill-rule:nonzero;stroke:none"
             d="m 0,0 c 0,-3.07 -0.778,-5.795 -2.336,-8.176 -1.557,-2.382 -3.803,-4.232 -6.736,-5.553 -2.935,-1.32 -6.377,-1.98 -10.326,-1.98 -3.296,0 -6.061,0.232 -8.295,0.694 -2.235,0.463 -4.559,1.27 -6.974,2.421 v 11.917 c 2.55,-1.309 5.202,-2.331 7.956,-3.064 2.753,-0.734 5.281,-1.1 7.583,-1.1 1.986,0 3.441,0.343 4.367,1.032 0.926,0.688 1.389,1.575 1.389,2.658 0,0.677 -0.187,1.269 -0.559,1.777 -0.373,0.508 -0.97,1.021 -1.795,1.541 -0.824,0.519 -3.018,1.579 -6.585,3.182 -3.227,1.467 -5.648,2.889 -7.261,4.266 -1.614,1.376 -2.81,2.956 -3.588,4.739 -0.779,1.783 -1.168,3.894 -1.168,6.332 0,4.558 1.658,8.113 4.976,10.664 3.318,2.55 7.876,3.825 13.677,3.825 5.124,0 10.349,-1.185 15.675,-3.554 L -4.096,21.295 c -4.627,2.121 -8.622,3.182 -11.985,3.182 -1.738,0 -3.002,-0.305 -3.791,-0.914 -0.791,-0.609 -1.186,-1.366 -1.186,-2.268 0,-0.971 0.502,-1.84 1.507,-2.607 1.004,-0.768 3.73,-2.167 8.176,-4.198 4.266,-1.919 7.229,-3.978 8.887,-6.178 C -0.829,6.111 0,3.34 0,0" /></g><g
           transform="translate(191.833,309)"
           id="g100"><path
             id="path102"
             style="fill:none;stroke:#222222;stroke-width:5.04699993;stroke-linecap:butt;stroke-linejoin:miter;stroke-miterlimit:10;stroke-dasharray:none;stroke-opacity:1"
             d="M 0,0 H 50.85" /></g><g
           transform="translate(260.499,309)"
           id="g104"><path
             id="path106"
             style="fill:#222222;fill-opacity:1;fill-rule:nonzero;stroke:none"
             d="M 0,0 -25.105,-10.258 -19.148,0 -25.105,10.256 Z" /></g><g
           transform="translate(14.1724,309)"
           id="g108"><path
             id="path110"
             style="fill:#4f0093;fill-opacity:1;fill-rule:evenodd;stroke:none"
             d="m 0,0 c 0,52.847 42.841,95.688 95.688,95.688 52.847,0 95.687,-42.841 95.687,-95.688 0,-52.847 -42.84,-95.688 -95.687,-95.688 C 42.841,-95.688 0,-52.847 0,0" /></g><g
           transform="translate(14.1724,309)"
           id="g112"><path
             id="path114"
             style="fill:none;stroke:#ffffff;stroke-width:3.48200011;stroke-linecap:butt;stroke-linejoin:miter;stroke-miterlimit:10;stroke-dasharray:none;stroke-opacity:1"
             d="m 0,0 c 0,52.847 42.841,95.688 95.688,95.688 52.847,0 95.687,-42.841 95.687,-95.688 0,-52.847 -42.84,-95.688 -95.687,-95.688 C 42.841,-95.688 0,-52.847 0,0 Z" /></g><g
           transform="translate(21.8999,309)"
           id="g116"><path
             id="path118"
             style="fill:#4f0093;fill-opacity:1;fill-rule:evenodd;stroke:none"
             d="m 0,0 c 0,48.578 39.38,87.96 87.96,87.96 48.58,0 87.96,-39.382 87.96,-87.96 0,-48.579 -39.38,-87.961 -87.96,-87.961 C 39.38,-87.961 0,-48.579 0,0" /></g><g
           transform="translate(21.8999,309)"
           id="g120"><path
             id="path122"
             style="fill:none;stroke:#ffffff;stroke-width:1.62800002;stroke-linecap:butt;stroke-linejoin:miter;stroke-miterlimit:10;stroke-dasharray:none;stroke-opacity:1"
             d="m 0,0 c 0,48.578 39.38,87.96 87.96,87.96 48.58,0 87.96,-39.382 87.96,-87.96 0,-48.579 -39.38,-87.961 -87.96,-87.961 C 39.38,-87.961 0,-48.579 0,0 Z" /></g><g
           transform="translate(54.2832,284.5298)"
           id="g124"><path
             id="path126"
             style="fill:#ffffff;fill-opacity:1;fill-rule:nonzero;stroke:none"
             d="m 0,0 v -15.439 h 2.303 c 1.864,0 3.288,0.608 4.273,1.826 0.985,1.218 1.488,2.96 1.509,5.226 v 1.223 c 0,2.351 -0.487,4.133 -1.461,5.345 C 5.649,-0.606 4.225,0 2.351,0 Z M -4.765,-19.268 V 3.86 h 7.116 c 2.033,0 3.852,-0.459 5.456,-1.374 1.605,-0.916 2.857,-2.219 3.757,-3.908 0.9,-1.689 1.35,-3.608 1.35,-5.758 v -1.064 c 0,-2.15 -0.442,-4.061 -1.327,-5.734 -0.884,-1.673 -2.13,-2.971 -3.74,-3.892 -1.61,-0.921 -3.426,-1.387 -5.449,-1.398 z" /></g><g
           transform="translate(75.2197,268.4551)"
           id="g128"><path
             id="path130"
             style="fill:#ffffff;fill-opacity:1;fill-rule:nonzero;stroke:none"
             d="M 0,0 C 0.677,0 1.302,0.151 1.874,0.453 2.446,0.754 2.87,1.159 3.145,1.667 V 4.622 H 1.43 c -2.299,0 -3.522,-0.794 -3.67,-2.382 L -2.256,1.969 c 0,-0.572 0.201,-1.043 0.604,-1.413 C -1.25,0.185 -0.699,0 0,0 M 3.796,-3.193 C 3.584,-2.78 3.431,-2.267 3.335,-1.652 2.224,-2.891 0.778,-3.511 -1.001,-3.511 c -1.684,0 -3.079,0.488 -4.185,1.462 -1.107,0.974 -1.66,2.202 -1.66,3.685 0,1.821 0.675,3.219 2.025,4.193 1.35,0.975 3.301,1.467 5.853,1.478 h 2.113 v 0.985 c 0,0.793 -0.204,1.429 -0.611,1.905 -0.409,0.477 -1.052,0.715 -1.93,0.715 -0.773,0 -1.38,-0.185 -1.819,-0.556 -0.44,-0.371 -0.66,-0.879 -0.66,-1.524 h -4.59 c 0,0.995 0.307,1.916 0.922,2.763 0.613,0.847 1.482,1.512 2.605,1.994 1.122,0.481 2.382,0.723 3.78,0.723 2.117,0 3.799,-0.533 5.043,-1.597 1.244,-1.064 1.866,-2.56 1.866,-4.487 V 0.778 C 7.762,-0.853 7.99,-2.086 8.435,-2.923 v -0.27 z" /></g><g
           transform="translate(90.6924,286.6738)"
           id="g132"><path
             id="path134"
             style="fill:#ffffff;fill-opacity:1;fill-rule:nonzero;stroke:none"
             d="M 0,0 V -4.225 H 2.938 V -7.592 H 0 v -8.578 c 0,-0.635 0.122,-1.091 0.365,-1.366 0.243,-0.276 0.709,-0.413 1.398,-0.413 0.508,0 0.958,0.037 1.35,0.111 v -3.478 c -0.9,-0.276 -1.826,-0.413 -2.78,-0.413 -3.219,0 -4.86,1.625 -4.924,4.876 v 9.261 h -2.51 v 3.367 h 2.51 V 0 Z" /></g><g
           transform="translate(101.0503,268.4551)"
           id="g136"><path
             id="path138"
             style="fill:#ffffff;fill-opacity:1;fill-rule:nonzero;stroke:none"
             d="M 0,0 C 0.677,0 1.302,0.151 1.874,0.453 2.446,0.754 2.87,1.159 3.145,1.667 V 4.622 H 1.43 c -2.299,0 -3.522,-0.794 -3.67,-2.382 L -2.256,1.969 c 0,-0.572 0.201,-1.043 0.604,-1.413 C -1.25,0.185 -0.699,0 0,0 M 3.796,-3.193 C 3.584,-2.78 3.431,-2.267 3.335,-1.652 2.224,-2.891 0.778,-3.511 -1.001,-3.511 c -1.684,0 -3.079,0.488 -4.185,1.462 -1.107,0.974 -1.66,2.202 -1.66,3.685 0,1.821 0.675,3.219 2.025,4.193 1.35,0.975 3.301,1.467 5.853,1.478 h 2.113 v 0.985 c 0,0.793 -0.204,1.429 -0.611,1.905 -0.409,0.477 -1.052,0.715 -1.93,0.715 -0.773,0 -1.38,-0.185 -1.819,-0.556 -0.44,-0.371 -0.66,-0.879 -0.66,-1.524 h -4.59 c 0,0.995 0.307,1.916 0.922,2.763 0.613,0.847 1.482,1.512 2.605,1.994 1.122,0.481 2.382,0.723 3.78,0.723 2.117,0 3.799,-0.533 5.043,-1.597 1.244,-1.064 1.866,-2.56 1.866,-4.487 V 0.778 C 7.762,-0.853 7.99,-2.086 8.435,-2.923 v -0.27 z" /></g><g
           transform="translate(121.9229,274.0469)"
           id="g140"><path
             id="path142"
             style="fill:#ffffff;fill-opacity:1;fill-rule:nonzero;stroke:none"
             d="m 0,0 c 0,1.742 -0.275,3.014 -0.826,3.816 -0.55,0.802 -1.371,1.203 -2.462,1.203 -1.462,0 -2.467,-0.601 -3.018,-1.801 v -6.803 c 0.561,-1.211 1.578,-1.816 3.05,-1.816 1.482,0 2.456,0.733 2.923,2.198 C -0.111,-2.502 0,-1.434 0,0 m 4.59,-0.35 c 0,-2.754 -0.587,-4.9 -1.763,-6.441 -1.175,-1.541 -2.817,-2.312 -4.924,-2.312 -1.863,0 -3.351,0.715 -4.463,2.145 l -0.207,-1.827 h -4.129 v 24.398 h 4.59 V 6.861 C -5.247,8.1 -3.854,8.72 -2.128,8.72 -0.032,8.72 1.612,7.949 2.804,6.409 3.995,4.868 4.59,2.7 4.59,-0.096 Z" /></g><g
           transform="translate(134.2026,268.4551)"
           id="g144"><path
             id="path146"
             style="fill:#ffffff;fill-opacity:1;fill-rule:nonzero;stroke:none"
             d="M 0,0 C 0.677,0 1.302,0.151 1.874,0.453 2.446,0.754 2.87,1.159 3.145,1.667 V 4.622 H 1.43 c -2.299,0 -3.522,-0.794 -3.67,-2.382 L -2.256,1.969 c 0,-0.572 0.201,-1.043 0.604,-1.413 C -1.25,0.185 -0.699,0 0,0 M 3.796,-3.193 C 3.584,-2.78 3.431,-2.267 3.335,-1.652 2.224,-2.891 0.778,-3.511 -1.001,-3.511 c -1.684,0 -3.079,0.488 -4.185,1.462 -1.107,0.974 -1.66,2.202 -1.66,3.685 0,1.821 0.675,3.219 2.025,4.193 1.35,0.975 3.301,1.467 5.853,1.478 h 2.113 v 0.985 c 0,0.793 -0.204,1.429 -0.611,1.905 -0.409,0.477 -1.052,0.715 -1.93,0.715 -0.773,0 -1.38,-0.185 -1.819,-0.556 -0.44,-0.371 -0.66,-0.879 -0.66,-1.524 h -4.59 c 0,0.995 0.307,1.916 0.922,2.763 0.613,0.847 1.482,1.512 2.605,1.994 1.122,0.481 2.382,0.723 3.78,0.723 2.117,0 3.799,-0.533 5.043,-1.597 1.244,-1.064 1.866,-2.56 1.866,-4.487 V 0.778 C 7.762,-0.853 7.99,-2.086 8.435,-2.923 v -0.27 z" /></g><g
           transform="translate(153.4873,270.0117)"
           id="g148"><path
             id="path150"
             style="fill:#ffffff;fill-opacity:1;fill-rule:nonzero;stroke:none"
             d="m 0,0 c 0,0.561 -0.278,1.003 -0.834,1.326 -0.556,0.323 -1.448,0.611 -2.676,0.866 -4.088,0.858 -6.132,2.594 -6.132,5.21 0,1.525 0.633,2.798 1.898,3.82 1.265,1.022 2.92,1.533 4.964,1.533 2.181,0 3.926,-0.514 5.234,-1.541 1.308,-1.027 1.962,-2.361 1.962,-4.003 h -4.591 c 0,0.657 -0.212,1.2 -0.635,1.628 -0.424,0.429 -1.086,0.644 -1.985,0.644 -0.774,0 -1.372,-0.175 -1.795,-0.525 -0.424,-0.349 -0.636,-0.793 -0.636,-1.334 0,-0.508 0.241,-0.918 0.723,-1.231 0.482,-0.312 1.295,-0.582 2.438,-0.81 1.144,-0.228 2.107,-0.484 2.891,-0.77 2.425,-0.89 3.637,-2.431 3.637,-4.623 0,-1.567 -0.672,-2.835 -2.017,-3.804 -1.345,-0.969 -3.081,-1.453 -5.21,-1.453 -1.44,0 -2.719,0.256 -3.836,0.77 -1.117,0.514 -1.993,1.218 -2.629,2.113 -0.635,0.894 -0.953,1.861 -0.953,2.899 h 4.352 c 0.043,-0.816 0.345,-1.441 0.906,-1.875 0.561,-0.434 1.313,-0.651 2.256,-0.651 0.878,0 1.543,0.167 1.993,0.5 C -0.225,-0.977 0,-0.54 0,0" /></g><g
           transform="translate(166.9902,279.0654)"
           id="g152"><path
             id="path154"
             style="fill:#ffffff;fill-opacity:1;fill-rule:nonzero;stroke:none"
             d="m 0,0 c -0.911,0 -1.649,-0.309 -2.216,-0.925 -0.567,-0.617 -0.929,-1.5 -1.088,-2.649 h 6.386 v 0.367 C 3.06,-2.186 2.785,-1.396 2.255,-0.837 1.726,-0.279 0.974,0 0,0 m 0.524,-14.121 c -2.52,0 -4.572,0.773 -6.155,2.319 -1.583,1.546 -2.375,3.606 -2.375,6.179 v 0.445 c 0,1.726 0.334,3.269 1.001,4.63 0.667,1.36 1.612,2.409 2.835,3.145 1.223,0.736 2.618,1.104 4.186,1.104 2.351,0 4.201,-0.741 5.551,-2.223 1.35,-1.483 2.025,-3.585 2.025,-6.307 V -6.703 H -3.352 c 0.148,-1.123 0.596,-2.023 1.343,-2.7 0.746,-0.678 1.691,-1.017 2.835,-1.017 1.768,0 3.15,0.641 4.146,1.922 l 2.255,-2.525 c -0.688,-0.975 -1.62,-1.735 -2.795,-2.28 -1.176,-0.545 -2.478,-0.818 -3.908,-0.818" /></g><g
           transform="translate(88.6221,320.3779)"
           id="g156"><path
             id="path158"
             style="fill:#ffffff;fill-opacity:1;fill-rule:evenodd;stroke:none"
             d="M 0,0 C -0.81,0 -1.553,-0.33 -2.092,-0.866 -2.625,-1.401 -2.958,-2.14 -2.958,-2.955 v -11.14 c 0,-0.812 0.333,-1.553 0.866,-2.089 0.021,-0.015 0.031,-0.036 0.057,-0.05 0.533,-0.5 1.251,-0.816 2.035,-0.816 h 44.794 c 0.811,0 1.555,0.33 2.092,0.866 0.539,0.541 0.871,1.277 0.871,2.089 v 11.14 c 0,0.815 -0.332,1.554 -0.871,2.089 C 46.353,-0.33 45.605,0 44.794,0 Z M 44.794,-1.688 H 0 c -0.343,0 -0.661,-0.144 -0.892,-0.375 -0.236,-0.231 -0.374,-0.545 -0.374,-0.892 v -11.14 c 0,-0.345 0.138,-0.666 0.374,-0.891 l 0.031,-0.036 c 0.225,-0.206 0.533,-0.336 0.861,-0.336 h 44.794 c 0.355,0 0.672,0.14 0.903,0.372 0.226,0.225 0.369,0.546 0.369,0.891 v 11.14 c 0,0.347 -0.143,0.661 -0.369,0.892 -0.237,0.231 -0.548,0.375 -0.903,0.375 M 0,28.348 h 44.794 c 0.355,0 0.666,0.148 0.903,0.379 0.226,0.225 0.369,0.545 0.369,0.897 v 11.129 c 0,0.351 -0.143,0.667 -0.369,0.897 -0.231,0.231 -0.548,0.372 -0.903,0.372 H 0 c -0.343,0 -0.661,-0.141 -0.892,-0.372 -0.236,-0.23 -0.374,-0.546 -0.374,-0.897 V 29.624 c 0,-0.336 0.128,-0.641 0.338,-0.861 l 0.036,-0.036 C -0.661,28.496 -0.343,28.348 0,28.348 m 44.794,-1.685 c 0.811,0 1.559,0.331 2.092,0.866 v 0.006 c 0.539,0.535 0.871,1.271 0.871,2.089 v 11.129 c 0,0.818 -0.332,1.559 -0.871,2.095 -0.537,0.535 -1.281,0.871 -2.092,0.871 H 0 c -0.81,0 -1.553,-0.336 -2.092,-0.871 -0.533,-0.536 -0.866,-1.277 -0.866,-2.095 V 29.624 c 0,-0.787 0.312,-1.513 0.82,-2.043 l 0.046,-0.052 C -1.553,26.994 -0.81,26.663 0,26.663 Z M 0,21.86 h 44.794 c 0.811,0 1.559,-0.331 2.092,-0.867 0.539,-0.535 0.871,-1.281 0.871,-2.094 V 7.765 C 47.757,6.952 47.425,6.211 46.886,5.676 46.349,5.14 45.605,4.804 44.794,4.804 H 0 c -0.784,0 -1.502,0.31 -2.035,0.82 -0.026,0.016 -0.036,0.036 -0.057,0.052 -0.533,0.535 -0.866,1.276 -0.866,2.089 v 11.134 c 0,0.813 0.333,1.559 0.866,2.094 0.539,0.536 1.282,0.867 2.092,0.867 m 38.136,10.063 h 4.08 v 4.078 h -4.08 z m 4.921,-1.69 h -5.772 c -0.467,0 -0.846,0.377 -0.846,0.844 v 5.776 c 0,0.465 0.379,0.845 0.846,0.845 h 5.772 c 0.472,0 0.851,-0.38 0.851,-0.845 v -5.776 c 0,-0.467 -0.379,-0.844 -0.851,-0.844 M 38.136,14.149 h 4.08 v -4.08 h -4.08 z m 4.921,-5.774 h -5.772 c -0.467,0 -0.846,0.382 -0.846,0.851 v 5.767 c 0,0.469 0.379,0.851 0.846,0.851 h 5.772 c 0.472,0 0.851,-0.382 0.851,-0.851 V 9.226 c 0,-0.469 -0.379,-0.851 -0.851,-0.851 M 38.136,-11.79 h 4.08 v 4.085 h -4.08 z m 4.921,-1.685 h -5.772 c -0.467,0 -0.846,0.372 -0.846,0.841 v 5.776 c 0,0.471 0.379,0.842 0.846,0.842 h 5.772 c 0.472,0 0.851,-0.371 0.851,-0.842 v -5.776 c 0,-0.469 -0.379,-0.841 -0.851,-0.841 m 1.737,33.646 H 0 c -0.343,0 -0.661,-0.149 -0.892,-0.375 -0.236,-0.231 -0.374,-0.546 -0.374,-0.897 V 7.765 c 0,-0.346 0.138,-0.661 0.374,-0.892 L -0.861,6.837 C -0.636,6.627 -0.328,6.501 0,6.501 h 44.794 c 0.355,0 0.672,0.141 0.903,0.366 0.226,0.232 0.369,0.552 0.369,0.898 v 11.134 c 0,0.351 -0.143,0.666 -0.369,0.897 -0.237,0.226 -0.548,0.375 -0.903,0.375" /></g><g
           transform="translate(612.4512,511.3096)"
           id="g160"><path
             id="path162"
             style="fill:#0073ec;fill-opacity:1;fill-rule:evenodd;stroke:none"
             d="m 0,0 c 0,52.848 42.841,95.688 95.688,95.688 52.847,0 95.687,-42.84 95.687,-95.688 0,-52.847 -42.84,-95.688 -95.687,-95.688 C 42.841,-95.688 0,-52.847 0,0" /></g><g
           transform="translate(612.4512,511.3096)"
           id="g164"><path
             id="path166"
             style="fill:none;stroke:#ffffff;stroke-width:3.48200011;stroke-linecap:butt;stroke-linejoin:miter;stroke-miterlimit:10;stroke-dasharray:none;stroke-opacity:1"
             d="m 0,0 c 0,52.848 42.841,95.688 95.688,95.688 52.847,0 95.687,-42.84 95.687,-95.688 0,-52.847 -42.84,-95.688 -95.687,-95.688 C 42.841,-95.688 0,-52.847 0,0 Z" /></g><g
           transform="translate(620.1787,511.3096)"
           id="g168"><path
             id="path170"
             style="fill:#0073ec;fill-opacity:1;fill-rule:evenodd;stroke:none"
             d="m 0,0 c 0,48.579 39.38,87.961 87.96,87.961 48.58,0 87.96,-39.382 87.96,-87.961 0,-48.578 -39.38,-87.96 -87.96,-87.96 C 39.38,-87.96 0,-48.578 0,0" /></g><g
           transform="translate(620.1787,511.3096)"
           id="g172"><path
             id="path174"
             style="fill:none;stroke:#ffffff;stroke-width:1.62800002;stroke-linecap:butt;stroke-linejoin:miter;stroke-miterlimit:10;stroke-dasharray:none;stroke-opacity:1"
             d="m 0,0 c 0,48.579 39.38,87.961 87.96,87.961 48.58,0 87.96,-39.382 87.96,-87.961 0,-48.578 -39.38,-87.96 -87.96,-87.96 C 39.38,-87.96 0,-48.578 0,0 Z" /></g><g
           transform="translate(689.0332,467.1895)"
           id="g176"><path
             id="path178"
             style="fill:#ffffff;fill-opacity:1;fill-rule:nonzero;stroke:none"
             d="M 0,0 H 5.782 L 2.875,8.657 Z M 7.068,-3.86 H -1.286 L -2.875,-8.625 H -7.941 L 0.667,14.502 H 5.083 L 13.74,-8.625 H 8.673 Z" /></g><g
           transform="translate(713.4482,467.3491)"
           id="g180"><path
             id="path182"
             style="fill:#ffffff;fill-opacity:1;fill-rule:nonzero;stroke:none"
             d="M 0,0 C 0,1.604 -0.283,2.841 -0.85,3.712 -1.416,4.583 -2.239,5.019 -3.319,5.019 -4.76,5.019 -5.75,4.466 -6.29,3.362 v -7.058 c 0.561,-1.137 1.562,-1.705 3.003,-1.705 C -1.096,-5.401 0,-3.601 0,0 m 4.591,-0.35 c 0,-2.648 -0.601,-4.768 -1.803,-6.362 -1.202,-1.594 -2.825,-2.391 -4.868,-2.391 -1.737,0 -3.14,0.604 -4.21,1.811 v -8.101 h -4.59 V 8.402 h 4.257 l 0.158,-1.684 c 1.112,1.335 2.564,2.002 4.353,2.002 2.118,0 3.764,-0.784 4.94,-2.351 1.175,-1.568 1.763,-3.728 1.763,-6.481 z" /></g><g
           transform="translate(730.4619,467.3491)"
           id="g184"><path
             id="path186"
             style="fill:#ffffff;fill-opacity:1;fill-rule:nonzero;stroke:none"
             d="M 0,0 C 0,1.604 -0.283,2.841 -0.85,3.712 -1.416,4.583 -2.239,5.019 -3.319,5.019 -4.76,5.019 -5.75,4.466 -6.29,3.362 v -7.058 c 0.561,-1.137 1.561,-1.705 3.002,-1.705 C -1.096,-5.401 0,-3.601 0,0 m 4.591,-0.35 c 0,-2.648 -0.602,-4.768 -1.803,-6.362 -1.202,-1.594 -2.825,-2.391 -4.869,-2.391 -1.736,0 -3.14,0.604 -4.209,1.811 v -8.101 h -4.591 V 8.402 h 4.257 l 0.159,-1.684 c 1.112,1.335 2.563,2.002 4.353,2.002 2.117,0 3.764,-0.784 4.939,-2.351 1.176,-1.568 1.764,-3.728 1.764,-6.481 z" /></g><g
           transform="translate(612.4512,309)"
           id="g188"><path
             id="path190"
             style="fill:#0073ec;fill-opacity:1;fill-rule:evenodd;stroke:none"
             d="m 0,0 c 0,52.847 42.841,95.688 95.688,95.688 52.847,0 95.687,-42.841 95.687,-95.688 0,-52.847 -42.84,-95.688 -95.687,-95.688 C 42.841,-95.688 0,-52.847 0,0" /></g><g
           transform="translate(612.4512,309)"
           id="g192"><path
             id="path194"
             style="fill:none;stroke:#ffffff;stroke-width:3.48200011;stroke-linecap:butt;stroke-linejoin:miter;stroke-miterlimit:10;stroke-dasharray:none;stroke-opacity:1"
             d="m 0,0 c 0,52.847 42.841,95.688 95.688,95.688 52.847,0 95.687,-42.841 95.687,-95.688 0,-52.847 -42.84,-95.688 -95.687,-95.688 C 42.841,-95.688 0,-52.847 0,0 Z" /></g><g
           transform="translate(620.1787,309)"
           id="g196"><path
             id="path198"
             style="fill:#0073ec;fill-opacity:1;fill-rule:evenodd;stroke:none"
             d="m 0,0 c 0,48.578 39.38,87.96 87.96,87.96 48.58,0 87.96,-39.382 87.96,-87.96 0,-48.579 -39.38,-87.961 -87.96,-87.961 C 39.38,-87.961 0,-48.579 0,0" /></g><g
           transform="translate(620.1787,309)"
           id="g200"><path
             id="path202"
             style="fill:none;stroke:#ffffff;stroke-width:1.62800002;stroke-linecap:butt;stroke-linejoin:miter;stroke-miterlimit:10;stroke-dasharray:none;stroke-opacity:1"
             d="m 0,0 c 0,48.578 39.38,87.96 87.96,87.96 48.58,0 87.96,-39.382 87.96,-87.96 0,-48.579 -39.38,-87.961 -87.96,-87.961 C 39.38,-87.961 0,-48.579 0,0 Z" /></g><g
           transform="translate(696.2842,279.3813)"
           id="g204"><path
             id="path206"
             style="fill:#ffffff;fill-opacity:1;fill-rule:nonzero;stroke:none"
             d="m 0,0 v -15.233 c 0,-2.531 -0.792,-4.533 -2.375,-6.004 -1.583,-1.472 -3.746,-2.208 -6.488,-2.208 -2.701,0 -4.845,0.715 -6.434,2.144 -1.588,1.43 -2.398,3.394 -2.43,5.893 V 0 h 4.765 v -15.265 c 0,-1.514 0.362,-2.618 1.088,-3.312 0.726,-0.694 1.728,-1.04 3.011,-1.04 2.678,0 4.039,1.408 4.082,4.225 V 0 Z" /></g><g
           transform="translate(707.8965,261.0034)"
           id="g208"><path
             id="path210"
             style="fill:#ffffff;fill-opacity:1;fill-rule:nonzero;stroke:none"
             d="m 0,0 c 0,0.561 -0.277,1.003 -0.834,1.326 -0.556,0.323 -1.448,0.611 -2.676,0.866 -4.088,0.858 -6.132,2.594 -6.132,5.21 0,1.525 0.633,2.798 1.899,3.82 1.264,1.022 2.92,1.533 4.964,1.533 2.18,0 3.925,-0.514 5.233,-1.541 1.308,-1.027 1.962,-2.361 1.962,-4.003 h -4.591 c 0,0.657 -0.212,1.2 -0.635,1.628 -0.423,0.429 -1.086,0.644 -1.985,0.644 -0.773,0 -1.372,-0.175 -1.795,-0.525 -0.424,-0.349 -0.636,-0.793 -0.636,-1.334 0,-0.508 0.241,-0.918 0.723,-1.231 0.482,-0.312 1.295,-0.582 2.439,-0.81 1.143,-0.228 2.106,-0.484 2.89,-0.77 2.425,-0.89 3.638,-2.431 3.638,-4.623 0,-1.567 -0.673,-2.835 -2.018,-3.804 -1.344,-0.969 -3.081,-1.453 -5.21,-1.453 -1.44,0 -2.718,0.256 -3.836,0.77 -1.117,0.514 -1.993,1.218 -2.629,2.113 -0.635,0.894 -0.953,1.861 -0.953,2.899 h 4.353 c 0.042,-0.816 0.344,-1.441 0.905,-1.875 0.562,-0.434 1.313,-0.651 2.256,-0.651 0.879,0 1.543,0.167 1.993,0.5 C -0.225,-0.977 0,-0.54 0,0" /></g><g
           transform="translate(721.3994,270.0571)"
           id="g212"><path
             id="path214"
             style="fill:#ffffff;fill-opacity:1;fill-rule:nonzero;stroke:none"
             d="m 0,0 c -0.911,0 -1.649,-0.309 -2.216,-0.925 -0.567,-0.617 -0.93,-1.5 -1.089,-2.649 h 6.386 v 0.367 C 3.06,-2.186 2.784,-1.396 2.255,-0.837 1.726,-0.279 0.974,0 0,0 m 0.523,-14.121 c -2.519,0 -4.572,0.773 -6.154,2.319 -1.584,1.546 -2.375,3.606 -2.375,6.179 v 0.445 c 0,1.726 0.333,3.269 1.001,4.63 0.667,1.36 1.612,2.409 2.835,3.145 1.223,0.736 2.618,1.104 4.186,1.104 2.35,0 4.201,-0.741 5.551,-2.223 1.35,-1.483 2.025,-3.585 2.025,-6.307 V -6.703 H -3.352 c 0.148,-1.123 0.596,-2.023 1.342,-2.7 0.747,-0.678 1.692,-1.017 2.835,-1.017 1.769,0 3.151,0.641 4.147,1.922 l 2.255,-2.525 c -0.689,-0.975 -1.621,-1.735 -2.795,-2.28 -1.176,-0.545 -2.479,-0.818 -3.909,-0.818" /></g><g
           transform="translate(739.9531,269.1357)"
           id="g216"><path
             id="path218"
             style="fill:#ffffff;fill-opacity:1;fill-rule:nonzero;stroke:none"
             d="m 0,0 c -0.625,0.085 -1.176,0.127 -1.652,0.127 -1.737,0 -2.875,-0.587 -3.415,-1.763 v -11.246 h -4.59 V 4.305 h 4.336 l 0.127,-2.049 c 0.922,1.577 2.197,2.367 3.828,2.367 0.509,0 0.985,-0.069 1.429,-0.207 z" /></g><g
           transform="translate(612.4512,106.6895)"
           id="g220"><path
             id="path222"
             style="fill:#0073ec;fill-opacity:1;fill-rule:evenodd;stroke:none"
             d="m 0,0 c 0,52.848 42.841,95.688 95.688,95.688 52.847,0 95.687,-42.84 95.687,-95.688 0,-52.847 -42.84,-95.688 -95.687,-95.688 C 42.841,-95.688 0,-52.847 0,0" /></g><g
           transform="translate(612.4512,106.6895)"
           id="g224"><path
             id="path226"
             style="fill:none;stroke:#ffffff;stroke-width:3.48200011;stroke-linecap:butt;stroke-linejoin:miter;stroke-miterlimit:10;stroke-dasharray:none;stroke-opacity:1"
             d="m 0,0 c 0,52.848 42.841,95.688 95.688,95.688 52.847,0 95.687,-42.84 95.687,-95.688 0,-52.847 -42.84,-95.688 -95.687,-95.688 C 42.841,-95.688 0,-52.847 0,0 Z" /></g><g
           transform="translate(620.1787,106.6895)"
           id="g228"><path
             id="path230"
             style="fill:#0073ec;fill-opacity:1;fill-rule:evenodd;stroke:none"
             d="m 0,0 c 0,48.579 39.38,87.961 87.96,87.961 48.58,0 87.96,-39.382 87.96,-87.961 0,-48.578 -39.38,-87.96 -87.96,-87.96 C 39.38,-87.96 0,-48.578 0,0" /></g><g
           transform="translate(620.1787,106.6895)"
           id="g232"><path
             id="path234"
             style="fill:none;stroke:#ffffff;stroke-width:1.62800002;stroke-linecap:butt;stroke-linejoin:miter;stroke-miterlimit:10;stroke-dasharray:none;stroke-opacity:1"
             d="m 0,0 c 0,48.579 39.38,87.961 87.96,87.961 48.58,0 87.96,-39.382 87.96,-87.961 0,-48.578 -39.38,-87.96 -87.96,-87.96 C 39.38,-87.96 0,-48.578 0,0 Z" /></g><g
           transform="translate(689.0332,62.5684)"
           id="g236"><path
             id="path238"
             style="fill:#ffffff;fill-opacity:1;fill-rule:nonzero;stroke:none"
             d="M 0,0 H 5.782 L 2.875,8.657 Z M 7.068,-3.86 H -1.286 L -2.875,-8.625 H -7.941 L 0.667,14.502 H 5.083 L 13.74,-8.625 H 8.673 Z" /></g><g
           transform="translate(713.4482,62.728)"
           id="g240"><path
             id="path242"
             style="fill:#ffffff;fill-opacity:1;fill-rule:nonzero;stroke:none"
             d="M 0,0 C 0,1.604 -0.283,2.841 -0.85,3.712 -1.416,4.583 -2.239,5.019 -3.319,5.019 -4.76,5.019 -5.75,4.466 -6.29,3.362 v -7.058 c 0.561,-1.137 1.562,-1.705 3.003,-1.705 C -1.096,-5.401 0,-3.601 0,0 m 4.591,-0.35 c 0,-2.648 -0.601,-4.768 -1.803,-6.362 -1.202,-1.594 -2.825,-2.391 -4.868,-2.391 -1.737,0 -3.14,0.604 -4.21,1.811 v -8.101 h -4.59 V 8.402 h 4.257 l 0.158,-1.684 c 1.112,1.335 2.564,2.002 4.353,2.002 2.118,0 3.764,-0.784 4.94,-2.351 1.175,-1.568 1.763,-3.728 1.763,-6.481 z" /></g><g
           transform="translate(730.4619,62.728)"
           id="g244"><path
             id="path246"
             style="fill:#ffffff;fill-opacity:1;fill-rule:nonzero;stroke:none"
             d="M 0,0 C 0,1.604 -0.283,2.841 -0.85,3.712 -1.416,4.583 -2.239,5.019 -3.319,5.019 -4.76,5.019 -5.75,4.466 -6.29,3.362 v -7.058 c 0.561,-1.137 1.561,-1.705 3.002,-1.705 C -1.096,-5.401 0,-3.601 0,0 m 4.591,-0.35 c 0,-2.648 -0.602,-4.768 -1.803,-6.362 -1.202,-1.594 -2.825,-2.391 -4.869,-2.391 -1.736,0 -3.14,0.604 -4.209,1.811 v -8.101 h -4.591 V 8.402 h 4.257 l 0.159,-1.684 c 1.112,1.335 2.563,2.002 4.353,2.002 2.117,0 3.764,-0.784 4.939,-2.351 1.176,-1.568 1.764,-3.728 1.764,-6.481 z" /></g><g
           transform="translate(722.9639,534.1401)"
           id="g248"><path
             id="path250"
             style="fill:#ffffff;fill-opacity:1;fill-rule:evenodd;stroke:none"
             d="m 0,0 v 7.578 c 0,0.773 -0.315,1.482 -0.823,1.987 -0.509,0.513 -1.217,0.831 -1.994,0.831 h -27.538 -8.578 c -0.777,0 -1.476,-0.318 -1.989,-0.827 L -40.927,9.565 C -41.438,9.06 -41.75,8.355 -41.75,7.578 V 0 Z m -31.056,11.805 v 3.463 8.288 c 0,1.163 0.47,2.22 1.235,2.986 h 0.004 l 0.008,0.009 c 0.761,0.764 1.815,1.232 2.976,1.232 h 36.11 c 1.166,0 2.221,-0.471 2.985,-1.241 0.759,-0.766 1.242,-1.818 1.242,-2.986 v -8.288 -25.623 c 0,-1.164 -0.483,-2.219 -1.242,-2.987 l -0.004,-0.004 C 11.493,-14.112 10.435,-14.58 9.277,-14.58 H 1.413 v -11.739 c 0,-1.161 -0.474,-2.216 -1.242,-2.98 v -0.004 c -0.768,-0.762 -1.823,-1.238 -2.988,-1.238 h -36.116 c -1.165,0 -2.219,0.476 -2.984,1.238 -0.765,0.768 -1.237,1.823 -1.237,2.984 v 25.616 8.281 c 0,1.161 0.469,2.208 1.229,2.976 l 0.008,0.008 0.005,0.005 c 0.764,0.762 1.818,1.238 2.979,1.238 z m 1.406,4.167 h 41.746 v 7.584 c 0,0.779 -0.322,1.482 -0.833,1.994 -0.508,0.506 -1.212,0.826 -1.986,0.826 h -36.11 c -0.781,0 -1.481,-0.315 -1.989,-0.826 h -0.005 c -0.508,-0.512 -0.823,-1.215 -0.823,-1.994 z m 41.746,-1.405 v -24.922 c 0,-0.775 -0.322,-1.484 -0.825,-1.99 l -0.008,-0.004 c -0.508,-0.512 -1.208,-0.826 -1.986,-0.826 H 1.413 v 12.453 0.019 0.017 8.264 c 0,1.166 -0.474,2.225 -1.242,2.989 -0.765,0.762 -1.818,1.238 -2.988,1.238 H -29.65 v 2.762 z m -51.029,-43.701 h 36.116 c 0.777,0 1.485,0.316 1.994,0.823 h 0.004 c 0.507,0.515 0.819,1.22 0.819,1.992 v 12.439 12.473 h -41.75 v -24.912 c 0,-0.772 0.319,-1.477 0.828,-1.992 0.513,-0.507 1.212,-0.823 1.989,-0.823" /></g><g
           transform="translate(722.9639,129.6831)"
           id="g252"><path
             id="path254"
             style="fill:#ffffff;fill-opacity:1;fill-rule:evenodd;stroke:none"
             d="m 0,0 v 7.578 c 0,0.773 -0.315,1.482 -0.823,1.987 -0.509,0.513 -1.217,0.831 -1.994,0.831 h -27.538 -8.578 c -0.777,0 -1.476,-0.318 -1.989,-0.827 L -40.927,9.565 C -41.438,9.06 -41.75,8.355 -41.75,7.578 V 0 Z m -31.056,11.805 v 3.463 8.288 c 0,1.163 0.47,2.22 1.235,2.986 h 0.004 l 0.008,0.009 c 0.761,0.764 1.815,1.232 2.976,1.232 h 36.11 c 1.166,0 2.221,-0.471 2.985,-1.241 0.759,-0.766 1.242,-1.818 1.242,-2.986 v -8.288 -25.623 c 0,-1.164 -0.483,-2.219 -1.242,-2.987 l -0.004,-0.004 C 11.493,-14.112 10.435,-14.58 9.277,-14.58 H 1.413 v -11.739 c 0,-1.161 -0.474,-2.216 -1.242,-2.98 v -0.004 c -0.768,-0.762 -1.823,-1.238 -2.988,-1.238 h -36.116 c -1.165,0 -2.219,0.476 -2.984,1.238 -0.765,0.768 -1.237,1.823 -1.237,2.984 v 25.616 8.281 c 0,1.161 0.469,2.208 1.229,2.976 l 0.008,0.008 0.005,0.005 c 0.764,0.762 1.818,1.238 2.979,1.238 z m 1.406,4.167 h 41.746 v 7.584 c 0,0.779 -0.322,1.482 -0.833,1.994 -0.508,0.506 -1.212,0.826 -1.986,0.826 h -36.11 c -0.781,0 -1.481,-0.315 -1.989,-0.826 h -0.005 c -0.508,-0.512 -0.823,-1.215 -0.823,-1.994 z m 41.746,-1.405 v -24.922 c 0,-0.775 -0.322,-1.484 -0.825,-1.99 l -0.008,-0.004 c -0.508,-0.512 -1.208,-0.826 -1.986,-0.826 H 1.413 v 12.453 0.019 0.017 8.264 c 0,1.166 -0.474,2.225 -1.242,2.989 -0.765,0.762 -1.818,1.238 -2.988,1.238 H -29.65 v 2.762 z m -51.029,-43.701 h 36.116 c 0.777,0 1.485,0.316 1.994,0.823 h 0.004 c 0.507,0.515 0.819,1.22 0.819,1.992 v 12.439 12.473 h -41.75 v -24.912 c 0,-0.772 0.319,-1.477 0.828,-1.992 0.513,-0.507 1.212,-0.823 1.989,-0.823" /></g><g
           transform="translate(696.833,338.1812)"
           id="g256"><path
             id="path258"
             style="fill:#ffffff;fill-opacity:1;fill-rule:evenodd;stroke:none"
             d="M 0,0 -0.004,0.024 Z M 2.785,-9.772 2.912,-9.8 C 2.236,-8.655 1.654,-7.376 1.19,-5.989 0.578,-4.154 0.167,-2.135 0,0 l -0.004,0.046 c -0.007,0.247 -0.015,0.494 -0.011,0.744 0.004,0.254 0.007,0.493 0.019,0.721 0.015,0.279 0.025,0.518 0.045,0.718 0.017,0.202 0.044,0.434 0.077,0.688 0.649,5.037 3.795,7.756 5.486,9.21 l 0.015,0.017 v 0.003 -0.003 l 0.008,0.007 c 0.048,0.041 0.099,0.076 0.155,0.102 0.301,0.145 0.668,0.018 0.813,-0.289 C 7.341,10.43 8.646,9.503 10.204,8.885 11.832,8.234 13.765,7.919 15.635,7.607 17.281,7.335 18.876,7.068 20.119,6.578 21.514,6.027 22.478,5.204 22.645,3.822 V 3.783 L 22.667,3.377 V 3.374 c 0.007,-0.119 0.011,-0.244 0.015,-0.381 0.011,-0.258 0.011,-0.543 0.011,-0.855 0,-0.174 0,-0.406 -0.007,-0.702 C 22.678,1.196 22.674,0.985 22.663,0.79 22.652,0.543 22.637,0.319 22.622,0.13 22.611,-0.037 22.593,-0.239 22.57,-0.471 c 0,-0.041 -0.008,-0.084 -0.014,-0.125 -0.06,-0.495 -0.134,-0.995 -0.219,-1.496 -0.093,-0.51 -0.196,-1.037 -0.316,-1.569 -0.123,-0.536 -0.263,-1.059 -0.396,-1.562 -0.146,-0.508 -0.297,-1.006 -0.461,-1.485 -0.007,-0.019 -0.015,-0.037 -0.025,-0.06 -0.301,-0.801 -0.638,-1.557 -1.013,-2.26 -0.152,-0.293 -0.308,-0.574 -0.475,-0.848 l 0.101,0.021 c 0.359,0.072 0.7,0.143 1.016,0.228 4.562,7.049 5.086,13.657 3.624,18.792 -0.731,2.563 -1.955,4.763 -3.416,6.461 -1.436,1.679 -3.098,2.864 -4.73,3.426 -1.683,0.584 -3.334,0.493 -4.637,-0.421 C 11.506,18.559 11.417,18.475 11.347,18.41 11.19,18.266 11.076,18.16 10.875,18.11 10.33,17.961 10.082,18.186 9.848,19.041 9.804,19.211 9.396,19.273 8.769,19.219 7.689,19.128 6.164,18.611 4.57,17.654 2.956,16.686 1.283,15.269 -0.062,13.384 L -0.07,13.388 V 13.384 C -3.412,8.72 -4.748,1.181 1.784,-9.521 c 0.3,-0.088 0.634,-0.171 1.001,-0.251 m 1.432,-4.889 c 0.03,0.33 0.312,0.577 0.646,0.555 z m 20.713,-4.121 c 3.096,-1.435 4.748,-3.874 5.623,-6.765 0.897,-2.966 0.998,-6.437 0.982,-9.811 v -0.003 h -0.004 v -0.726 c 0,-0.675 -0.277,-1.287 -0.719,-1.728 -0.437,-0.443 -1.053,-0.722 -1.728,-0.722 H -6.477 c -0.674,0 -1.283,0.279 -1.728,0.714 l -0.004,0.008 c -0.44,0.441 -0.719,1.047 -0.719,1.728 v 0.726 0.061 c -0.015,3.355 0.093,6.802 0.987,9.753 v 0.004 l 0.004,-0.004 c 0.875,2.895 2.525,5.33 5.611,6.765 0.312,0.145 0.631,0.269 0.957,0.388 -0.052,-0.274 -0.089,-0.562 -0.133,-0.881 -0.127,-1.011 -0.297,-2.374 -1.098,-4.596 -0.067,-0.169 -0.063,-0.358 0.03,-0.528 0.163,-0.293 0.537,-0.399 0.831,-0.236 l 6.161,3.433 6.176,-14.866 c 0.058,-0.139 0.173,-0.262 0.33,-0.33 0.31,-0.124 0.671,0.02 0.797,0.33 l 6.175,14.866 6.165,-3.433 c 0.149,-0.079 0.331,-0.098 0.501,-0.042 0.319,0.115 0.482,0.463 0.364,0.779 -0.805,2.242 -0.98,3.608 -1.114,4.623 -0.041,0.36 -0.081,0.683 -0.148,0.987 0.437,-0.145 0.857,-0.304 1.262,-0.494 m -7.783,7.506 -0.107,-0.126 c -0.27,-0.301 -0.557,-0.588 -0.86,-0.863 -0.019,-0.011 -0.034,-0.022 -0.049,-0.033 -0.735,-0.657 -1.527,-1.17 -2.359,-1.515 -0.786,-0.329 -1.617,-0.503 -2.466,-0.503 -1.199,0 -2.348,0.347 -3.42,0.982 -1.128,0.663 -2.17,1.648 -3.075,2.877 -0.022,0.03 -0.044,0.062 -0.071,0.088 l -0.041,0.057 -0.014,0.019 c -0.943,1.322 -1.744,2.914 -2.337,4.694 -0.578,1.732 -0.972,3.652 -1.131,5.686 0,0.024 0,0.046 -0.004,0.069 -0.008,0.22 -0.015,0.43 -0.008,0.63 0,0.221 0.004,0.445 0.016,0.677 0.01,0.197 0.025,0.421 0.048,0.664 0.022,0.254 0.043,0.464 0.066,0.634 0.53,4.099 2.927,6.552 4.552,7.992 C 6.803,9.299 8.172,8.383 9.759,7.752 11.514,7.053 13.509,6.723 15.434,6.404 17.01,6.142 18.535,5.888 19.67,5.443 20.648,5.056 21.324,4.516 21.428,3.681 L 21.443,3.316 C 21.45,3.175 21.457,3.051 21.457,2.96 21.469,2.812 21.473,2.533 21.473,2.138 21.473,1.834 21.469,1.608 21.465,1.463 21.457,1.265 21.45,1.055 21.443,0.847 21.436,0.662 21.42,0.452 21.406,0.221 V 0.217 C 21.391,0 21.372,-0.182 21.357,-0.338 L 21.35,-0.392 C 21.287,-0.885 21.217,-1.386 21.131,-1.884 21.039,-2.404 20.938,-2.91 20.827,-3.396 20.716,-3.889 20.59,-4.39 20.449,-4.893 20.315,-5.367 20.17,-5.833 20.015,-6.289 v -0.007 c -0.286,-0.757 -0.613,-1.482 -0.968,-2.166 -0.353,-0.676 -0.746,-1.306 -1.165,-1.889 h 0.004 -0.004 c -0.208,-0.287 -0.427,-0.565 -0.65,-0.827 -0.029,-0.03 -0.062,-0.061 -0.085,-0.098 m 2.348,-4.842 c 0.152,0.029 0.305,-0.006 0.427,-0.078 l 0.052,-0.008 c 0.901,-0.163 1.813,-0.322 2.712,-0.538 0.122,0.008 0.241,-0.028 0.344,-0.089 0.827,-0.211 1.636,-0.481 2.415,-0.841 3.46,-1.607 5.3,-4.312 6.272,-7.521 0.946,-3.123 1.054,-6.697 1.039,-10.168 h 0.004 v -0.726 c 0,-1.014 -0.416,-1.929 -1.08,-2.594 -0.664,-0.668 -1.584,-1.078 -2.596,-1.078 H -6.477 c -1.004,0 -1.924,0.41 -2.591,1.078 l -0.008,0.007 c -0.66,0.666 -1.072,1.58 -1.072,2.587 v 0.726 l 0.003,0.057 c -0.014,3.45 0.093,7.005 1.04,10.111 h -0.004 c 0.967,3.205 2.814,5.914 6.271,7.521 0.683,0.315 1.392,0.562 2.108,0.76 0.081,0.041 0.173,0.067 0.266,0.07 1.017,0.271 2.067,0.457 3.094,0.638 l 0.489,0.086 0.041,0.007 c 0.271,0.056 0.512,0.215 0.694,0.444 0.204,0.257 0.337,0.604 0.356,0.988 l 0.007,0.018 0.123,2.827 c -0.167,0.196 -0.33,0.402 -0.486,0.619 -0.467,0.07 -0.913,0.16 -1.325,0.247 -0.474,0.106 -0.92,0.215 -1.324,0.345 -0.163,0.05 -0.281,0.152 -0.351,0.284 C -6.127,1 -4.67,9.071 -1.057,14.099 h -0.004 c 1.455,2.028 3.26,3.551 5.007,4.604 1.759,1.059 3.48,1.632 4.722,1.736 1.102,0.091 1.918,-0.18 2.248,-0.803 1.644,1.152 3.676,1.278 5.727,0.57 1.833,-0.639 3.683,-1.944 5.267,-3.786 1.566,-1.826 2.878,-4.178 3.657,-6.925 1.558,-5.476 1.001,-12.518 -3.909,-19.994 -0.086,-0.124 -0.215,-0.211 -0.348,-0.254 -0.398,-0.106 -0.843,-0.208 -1.322,-0.302 -0.392,-0.078 -0.819,-0.153 -1.271,-0.217 -0.145,-0.199 -0.293,-0.384 -0.449,-0.566 l 0.126,-2.841 c 0.026,-0.384 0.156,-0.731 0.364,-0.988 0.188,-0.236 0.444,-0.403 0.73,-0.457 v 0.006 z M 5.979,-18.759 c 0.215,-0.088 0.39,-0.208 0.535,-0.353 0.155,-0.156 0.274,-0.343 0.374,-0.558 l 3.865,-8.455 c 0.138,-0.308 0.501,-0.441 0.809,-0.304 0.14,0.065 0.245,0.178 0.303,0.311 l 3.844,8.823 c 0.077,0.187 0.188,0.336 0.33,0.463 0.155,0.138 0.345,0.247 0.566,0.331 l 2.987,1.125 0.174,-0.031 c 0.845,-0.156 1.699,-0.308 2.537,-0.501 0.171,-0.442 0.23,-0.916 0.308,-1.519 0.1,-0.825 0.242,-1.865 0.683,-3.381 l -5.398,3.005 c -0.296,0.163 -0.664,0.057 -0.827,-0.236 -0.01,-0.022 -0.025,-0.043 -0.033,-0.061 L 11.161,-34.238 5.289,-20.1 c -0.13,0.311 -0.489,0.46 -0.801,0.326 -0.033,-0.011 -0.063,-0.029 -0.096,-0.048 l -5.36,-2.986 c 0.442,1.516 0.572,2.556 0.679,3.377 0.074,0.574 0.133,1.03 0.285,1.447 0.899,0.228 1.825,0.391 2.745,0.554 z m -1.542,1.952 2.009,-0.825 c 0.371,-0.156 0.679,-0.363 0.943,-0.627 0.248,-0.257 0.449,-0.558 0.604,-0.899 l 3.302,-7.216 3.293,7.57 c 0.152,0.345 0.371,0.638 0.635,0.877 0.266,0.243 0.59,0.432 0.949,0.57 l 1.844,0.691 c -0.075,0.077 -0.149,0.154 -0.215,0.244 -0.357,0.443 -0.586,1.025 -0.631,1.671 v 0.011 l -0.066,1.667 -0.157,-0.141 -0.041,-0.034 c -0.827,-0.734 -1.724,-1.303 -2.663,-1.694 -0.942,-0.392 -1.925,-0.596 -2.937,-0.596 -1.421,0 -2.783,0.406 -4.039,1.15 -0.617,0.362 -1.206,0.803 -1.759,1.319 l -0.071,-1.645 -0.003,-0.037 c -0.041,-0.646 -0.267,-1.228 -0.623,-1.671 -0.112,-0.141 -0.238,-0.275 -0.374,-0.385" /></g></g></g></g></svg>